{"title":"Boost 2015 Movies HDRip XViD AAC New Source with Sample ~ ☻rDX☻","uid":14188960,"size":740014782,"categoryP":"video","categoryS":"movies","magnet":"?xt=urn:btih:e5076778f21d2960e53145612fdb08e5e889a86c&amp;dn=Boost+2015+Movies+HDRip+XViD+AAC+New+Source+with+Sample+%7E+%E2%98%BBrDX%E2%98%BB&amp;tr=udp%3A%2F%2Ftracker.leechers-paradise.org%3A6969&amp;tr=udp%3A%2F%2Fzer0day.ch%3A1337&amp;tr=udp%3A%2F%2Fopen.demonii.com%3A1337&amp;tr=udp%3A%2F%2Ftracker.coppersurfer.tk%3A6969&amp;tr=udp%3A%2F%2Fexodus.desync.com%3A6969","seeders":0,"leechers":1,"uploader":"basicssom","files":3,"time":1459873494,"description":"----------------------------------------------------------------\r\nBoost 2015 English Movies HDRip XViD AAC New Source with Sample ~ ☻rDX☻\r\n\r\nSCREEN SHOTS &amp; POSTER:\r\n  \nhttp://mobileshosting.com/2016/4/cheap/index.htm  \nhttp://mobileshosting.com/2016/4/cheap/1.html  \nhttp://mobileshosting.com/2016/4/cheap/2.html  \nhttp://mobileshosting.com/2016/4/cheap/3.html  \nhttp://mobileshosting.com/2016/4/cheap/4.html  \nhttp://mobileshosting.com/2016/4/cheap/5.html  \nhttp://mobileshosting.com/2016/4/cheap/6.html  \nhttp://mobileshosting.com/2016/4/cheap/7.html  \nhttp://mobileshosting.com/2016/4/cheap/8.html  \nhttp://mobileshosting.com/2016/4/cheap/9.html  \nhttp://mobileshosting.com/2016/4/cheap/10.html\r\n\r\nFormat                                   : Matroska\r\nFormat version                           : Version 4 / Version 2\r\nFile size                                : 694 MiB\r\nDuration                                 : 1h 34mn\r\nOverall bit rate                         : 1 023 Kbps\r\nMovie name                               : Boost 2015 English Movies HDRip XViD AAC New Source ☻rDX☻\r\n\r\nVideo\r\nID                                       : 1\r\nFormat                                   : MPEG-4 Visual\r\nFormat profile                           : Advanced   \r\nFormat settings, BVOP                    : Yes\r\nFormat settings, QPel                    : No\r\nFormat settings, GMC                     : No warppoints\r\nFormat settings, Matrix                  : Default (H.263)\r\nCodec ID                                 : V_MS/VFW/FOURCC / XVID\r\nCodec ID/Hint                            : XviD\r\nDuration                                 : 1h 34mn\r\nBit rate                                 : 875 Kbps\r\nWidth                                    : 640 pixels\r\nHeight                                   : 272 pixels\r\nDisplay aspect ratio                     : 2.35:1\r\nFrame rate mode                          : Constant\r\nFrame rate                               : 23.976 fps\r\nColor space                              : YUV\r\nChroma subsampling                       : 4:2:0\r\nBit depth                                : 8 bits\r\nScan type                                : Progressive\r\nCompression mode                         : Lossy\r\nBits/(Pixel*Frame)                       : 0.210\r\nStream size                              : 593 MiB (85%)\r\nTitle                                    : ☻rDX☻\r\nWriting library                          : XviD 65\r\nDefault                                  : Yes\r\nForced                                   : No\r\n\r\nAudio\r\nID                                       : 2\r\nFormat                                   : MPEG Audio\r\nFormat version                           : Version 1\r\nFormat profile                           : Layer 3\r\nMode                                     : Joint stereo\r\nCodec ID                                 : A_MPEG/L3\r\nCodec ID/Hint                            : MP3\r\nDuration                                 : 1h 34mn\r\nBit rate mode                            : Constant\r\nBit rate                                 : 128 Kbps\r\nChannel(s)                               : 2 channels\r\nSampling rate                            : 48.0 KHz\r\nCompression mode                         : Lossy\r\nStream size                              : 86.8 MiB (13%)\r\nTitle                                    : ☻rDX☻\r\nWriting library                          : LAME3.99r\r\nEncoding settings                        : -m j -V 4 -q 3 -lowpass 17 -b 128\r\nDefault                                  : Yes\r\nForced                                   : No\r\n\r\nIMDB \nhttp://www.imdb.com/title/tt2262161/","torrent":{"xt":"urn:btih:e5076778f21d2960e53145612fdb08e5e889a86c","amp;dn":"Boost+2015+Movies+HDRip+XViD+AAC+New+Source+with+Sample+%7E+%E2%98%BBrDX%E2%98%BB","amp;tr":["udp%3A%2F%2Ftracker.leechers-paradise.org%3A6969","udp%3A%2F%2Fzer0day.ch%3A1337","udp%3A%2F%2Fopen.demonii.com%3A1337","udp%3A%2F%2Ftracker.coppersurfer.tk%3A6969","udp%3A%2F%2Fexodus.desync.com%3A6969"],"infoHash":"e5076778f21d2960e53145612fdb08e5e889a86c","infoHashBuffer":{"type":"Buffer","data":[229,7,103,120,242,29,41,96,229,49,69,97,47,219,8,229,232,137,168,108]},"announce":[],"urlList":[]}}